<svg width="23" height="22" viewBox="0 0 23 22" fill="none" xmlns="http://www.w3.org/2000/svg">
    <path fill-rule="evenodd" clip-rule="evenodd"
          d="M19 18H15.6848V13.0784C15.6848 11.7902 15.1662 10.9108 14.0259 10.9108C13.1536 10.9108 12.6686 11.5043 12.4428 12.0762C12.3581 12.2815 12.3714 12.5675 12.3714 12.8534V18H9.08702C9.08702 18 9.12936 9.28194 9.08702 8.48947H12.3714V9.98208C12.5654 9.32945 13.6149 8.39803 15.2897 8.39803C17.3675 8.39803 19 9.76603 19 12.7118V18ZM5.76564 7.29987H5.74447C4.68615 7.29987 4 6.57283 4 5.65127C4 4.71178 4.70643 4 5.78592 4C6.86453 4 7.52775 4.71 7.54892 5.64859C7.54892 6.57015 6.86453 7.29987 5.76564 7.29987ZM4.37834 8.48947H7.30197V18H4.37834V8.48947Z"
          fill="currentColor"/>
</svg>
