<svg width="24" height="24" viewBox="0 0 24 24" fill="none" xmlns="http://www.w3.org/2000/svg">
    <path
        d="M9.06122 18.0612C7.21088 18.0612 5.46939 17.517 4 16.5918C4.27211 16.6463 4.54422 16.6463 4.7619 16.6463C6.28571 16.6463 7.7551 16.102 8.84354 15.2313C7.37415 15.2313 6.17687 14.2517 5.7415 12.9456C5.95918 13 6.12245 13 6.34014 13C6.66667 13 6.93878 12.9456 7.21088 12.8912C5.68707 12.5646 4.54422 11.2585 4.54422 9.68027V9.62585C5.08844 9.84354 5.57823 10.0068 6.12245 10.0068C5.2517 9.40816 4.65306 8.42857 4.65306 7.28571C4.65306 6.68707 4.81633 6.14286 5.08844 5.65306C6.72109 7.66667 9.17007 8.97279 11.8912 9.08163C11.8367 8.86395 11.7823 8.59184 11.7823 8.31973C11.7823 6.52381 13.2517 5 15.102 5C16.0272 5 16.898 5.38095 17.4966 6.03401C18.2585 5.87075 18.966 5.59864 19.5646 5.21769C19.2925 5.97959 18.8027 6.63265 18.0952 7.06803C18.7483 7.01361 19.4014 6.79592 20 6.52381C19.5646 7.17687 19.0204 7.77551 18.3673 8.21088C18.3673 8.37415 18.3673 8.48299 18.3673 8.64626C18.4218 13.0544 15.102 18.0612 9.06122 18.0612Z"
        fill="currentColor"/>
</svg>
