<svg width="24" height="24" viewBox="0 0 24 24" fill="none" xmlns="http://www.w3.org/2000/svg">
    <path
        d="M19.7091 8.14114C19.5221 7.48232 18.961 6.91761 18.3065 6.72938C16.9974 6.35291 12.0416 6.35291 12.0416 6.35291C12.0416 6.35291 6.99221 6.35291 5.77662 6.72938C5.02857 6.91761 4.56104 7.3882 4.37403 8.14114C4 9.36467 4 12 4 12C4 12 4 14.6353 4.37403 15.8588C4.56104 16.5176 5.12208 17.0823 5.77662 17.2706C6.99221 17.647 12.0416 17.647 12.0416 17.647C12.0416 17.647 17.0909 17.647 18.3065 17.2706C18.961 17.0823 19.5221 16.5176 19.7091 15.8588C19.9896 14.6353 19.9896 12 19.9896 12C19.9896 12 20.0831 9.36467 19.7091 8.14114ZM10.4519 14.447V9.55291L14.5662 12L10.4519 14.447Z"
        fill="currentColor"/>
</svg>
